<mxfile host="app.diagrams.net" modified="2023-10-11T01:39:41.364Z" agent="Mozilla/5.0 (Windows NT 10.0; Win64; x64) AppleWebKit/537.36 (KHTML, like Gecko) Chrome/117.0.0.0 Safari/537.36" version="21.6.6" etag="c0UXaX8c01VdcqLn99tH" type="device">
  <diagram id="lUZkVCwg9ERrZkaZSjpY" name="페이지-1">
    <mxGraphModel dx="1434" dy="733" grid="1" gridSize="10" guides="1" tooltips="1" connect="1" arrows="1" fold="1" page="1" pageScale="1" pageWidth="827" pageHeight="1169" background="#FFFFFF" math="0" shadow="0">
      <root>
        <mxCell id="0" />
        <mxCell id="1" parent="0" />
        <mxCell id="2" style="shape=rect;fillColor=none;strokeColor=none;shadow=1;strokeWidth=2;opacity=100.0;gliffyId=0;" parent="1" vertex="1">
          <mxGeometry x="50" y="41" width="390" height="936" as="geometry" />
        </mxCell>
        <mxCell id="3" value="&lt;div style=&#39;width: 387.0px;height:auto;word-break: break-word;&#39;&gt;&lt;div align=&quot;center&quot;&gt;&lt;span style=&quot;font-size: 12px; font-family: Arial; white-space: pre-wrap; font-weight: bold; text-decoration: none; line-height: 14px; color: rgb(0, 0, 0);&quot;&gt;InGameMenu = public abstract class : MonoBehaviour &lt;/span&gt;&lt;/div&gt;&lt;div align=&quot;center&quot;&gt;&lt;span style=&quot;font-size: 12px; font-family: Arial; white-space: pre-wrap; font-weight: bold; text-decoration: none; line-height: 14px; color: rgb(0, 0, 0);&quot;&gt;스테이지 진행 도중 발생하는 상황 관련 컴포넌트&lt;/span&gt;&lt;/div&gt;&lt;/div&gt;" style="shape=rect;shadow=1;strokeWidth=2;fillColor=#ffffff;strokeColor=#000000;opacity=100.0;html=1;nl2Br=0;verticalAlign=top;align=center;spacingLeft=0.0;spacingRight=0;spacingTop=-5.0;spacingBottom=2;whiteSpace=wrap;gliffyId=1;" parent="2" vertex="1">
          <mxGeometry width="390" height="32" as="geometry" />
        </mxCell>
        <mxCell id="4" value="&lt;div style=&#39;width: 387.0px;height:auto;word-break: break-word;&#39;&gt;&lt;div align=&quot;left&quot;&gt;&lt;span style=&quot;font-size: 12px; font-family: Arial; white-space: pre-wrap; font-weight: normal; text-decoration: none; line-height: 14px; color: rgb(0, 0, 0);&quot;&gt;confirmWindow= Confirm &lt;/span&gt;&lt;/div&gt;&lt;div align=&quot;left&quot;&gt;&lt;span style=&quot;font-size: 12px; font-family: Arial; white-space: pre-wrap; font-weight: normal; text-decoration: none; line-height: 14px; color: rgb(0, 0, 0);&quot;&gt;확인창 구성요소 &lt;/span&gt;&lt;/div&gt;&lt;div align=&quot;left&quot;&gt;&lt;span style=&quot;font-size: 12px; font-family: Arial; white-space: pre-wrap; font-weight: normal; text-decoration: none; line-height: 14px; color: rgb(0, 0, 0);&quot;&gt; &lt;/span&gt;&lt;/div&gt;&lt;div align=&quot;left&quot;&gt;&lt;span style=&quot;font-size: 12px; font-family: Arial; white-space: pre-wrap; font-weight: normal; text-decoration: none; line-height: 14px; color: rgb(0, 0, 0);&quot;&gt;events = List&amp;lt;ButtonClickedEvent&amp;gt;  &lt;/span&gt;&lt;/div&gt;&lt;div align=&quot;left&quot;&gt;&lt;span style=&quot;font-size: 12px; font-family: Arial; white-space: pre-wrap; font-weight: normal; text-decoration: none; line-height: 14px; color: rgb(0, 0, 0);&quot;&gt;확인창 버튼에 할당할 이벤트 목록 &lt;/span&gt;&lt;/div&gt;&lt;div align=&quot;left&quot;&gt;&lt;span style=&quot;font-size: 12px; font-family: Arial; white-space: pre-wrap; font-weight: normal; text-decoration: none; line-height: 14px; color: rgb(0, 0, 0);&quot;&gt; &lt;/span&gt;&lt;/div&gt;&lt;div align=&quot;left&quot;&gt;&lt;span style=&quot;font-size: 12px; font-family: Arial; white-space: pre-wrap; font-weight: normal; text-decoration: none; line-height: 14px; color: rgb(0, 0, 0);&quot;&gt;gameoverImage = Image &lt;/span&gt;&lt;/div&gt;&lt;div align=&quot;left&quot;&gt;&lt;span style=&quot;font-size: 12px; font-family: Arial; white-space: pre-wrap; font-weight: normal; text-decoration: none; line-height: 14px; color: rgb(0, 0, 0);&quot;&gt;gameover = public Sprite set &lt;/span&gt;&lt;/div&gt;&lt;div align=&quot;left&quot;&gt;&lt;span style=&quot;font-size: 12px; font-family: Arial; white-space: pre-wrap; font-weight: normal; text-decoration: none; line-height: 14px; color: rgb(0, 0, 0);&quot;&gt;게임 오버 이미지 &lt;/span&gt;&lt;/div&gt;&lt;div align=&quot;left&quot;&gt;&lt;span style=&quot;font-size: 12px; font-family: Arial; white-space: pre-wrap; font-weight: normal; text-decoration: none; line-height: 14px; color: rgb(0, 0, 0);&quot;&gt; &lt;/span&gt;&lt;/div&gt;&lt;div align=&quot;left&quot;&gt;&lt;span style=&quot;font-size: 12px; font-family: Arial; white-space: pre-wrap; font-weight: normal; text-decoration: none; line-height: 14px; color: rgb(0, 0, 0);&quot;&gt;progressBarImage = Image &lt;/span&gt;&lt;/div&gt;&lt;div align=&quot;left&quot;&gt;&lt;span style=&quot;font-size: 12px; font-family: Arial; white-space: pre-wrap; font-weight: normal; text-decoration: none; line-height: 14px; color: rgb(0, 0, 0);&quot;&gt;progressBar = public Sprite set &lt;/span&gt;&lt;/div&gt;&lt;div align=&quot;left&quot;&gt;&lt;span style=&quot;font-size: 12px; font-family: Arial; white-space: pre-wrap; font-weight: normal; text-decoration: none; line-height: 14px; color: rgb(0, 0, 0);&quot;&gt;진행정도 배경 이미지 &lt;/span&gt;&lt;/div&gt;&lt;div align=&quot;left&quot;&gt;&lt;span style=&quot;font-size: 12px; font-family: Arial; white-space: pre-wrap; font-weight: normal; text-decoration: none; line-height: 14px; color: rgb(0, 0, 0);&quot;&gt; &lt;/span&gt;&lt;/div&gt;&lt;div align=&quot;left&quot;&gt;&lt;span style=&quot;font-size: 12px; font-family: Arial; white-space: pre-wrap; font-weight: normal; text-decoration: none; line-height: 14px; color: rgb(0, 0, 0);&quot;&gt;progressIconImage = Image &lt;/span&gt;&lt;/div&gt;&lt;div align=&quot;left&quot;&gt;&lt;span style=&quot;font-size: 12px; font-family: Arial; white-space: pre-wrap; font-weight: normal; text-decoration: none; line-height: 14px; color: rgb(0, 0, 0);&quot;&gt;progressIcon = public Sprite set &lt;/span&gt;&lt;/div&gt;&lt;div align=&quot;left&quot;&gt;&lt;span style=&quot;font-size: 12px; font-family: Arial; white-space: pre-wrap; font-weight: normal; text-decoration: none; line-height: 14px; color: rgb(0, 0, 0);&quot;&gt;진행정도 표시 이미지 &lt;/span&gt;&lt;/div&gt;&lt;div align=&quot;left&quot;&gt;&lt;span style=&quot;font-size: 12px; font-family: Arial; white-space: pre-wrap; font-weight: normal; text-decoration: none; line-height: 14px; color: rgb(0, 0, 0);&quot;&gt; &lt;/span&gt;&lt;/div&gt;&lt;div align=&quot;left&quot;&gt;&lt;span style=&quot;font-size: 12px; font-family: Arial; white-space: pre-wrap; font-weight: normal; text-decoration: none; line-height: 14px; color: rgb(0, 0, 0);&quot;&gt;progress = public float set &lt;/span&gt;&lt;/div&gt;&lt;div align=&quot;left&quot;&gt;&lt;span style=&quot;font-size: 12px; font-family: Arial; white-space: pre-wrap; font-weight: normal; text-decoration: none; line-height: 14px; color: rgb(0, 0, 0);&quot;&gt;진행정도 &lt;/span&gt;&lt;/div&gt;&lt;div align=&quot;left&quot;&gt;&lt;span style=&quot;font-size: 12px; font-family: Arial; white-space: pre-wrap; font-weight: normal; text-decoration: none; line-height: 14px; color: rgb(0, 0, 0);&quot;&gt; &lt;/span&gt;&lt;/div&gt;&lt;div align=&quot;left&quot;&gt;&lt;span style=&quot;font-size: 12px; font-family: Arial; white-space: pre-wrap; font-weight: normal; text-decoration: none; line-height: 14px; color: rgb(0, 0, 0);&quot;&gt;nomalText = TMP_Text &lt;/span&gt;&lt;/div&gt;&lt;div align=&quot;left&quot;&gt;&lt;span style=&quot;font-size: 12px; font-family: Arial; white-space: pre-wrap; font-weight: normal; text-decoration: none; line-height: 14px; color: rgb(0, 0, 0);&quot;&gt;승리 일반대사, 패배 대사 구간 &lt;/span&gt;&lt;/div&gt;&lt;div align=&quot;left&quot;&gt;&lt;span style=&quot;font-size: 12px; font-family: Arial; white-space: pre-wrap; font-weight: normal; text-decoration: none; line-height: 14px; color: rgb(0, 0, 0);&quot;&gt; &lt;/span&gt;&lt;/div&gt;&lt;div align=&quot;left&quot;&gt;&lt;span style=&quot;font-size: 12px; font-family: Arial; white-space: pre-wrap; font-weight: normal; text-decoration: none; line-height: 14px; color: rgb(0, 0, 0);&quot;&gt;hintText = TMP_Text &lt;/span&gt;&lt;/div&gt;&lt;div align=&quot;left&quot;&gt;&lt;span style=&quot;font-size: 12px; font-family: Arial; white-space: pre-wrap; font-weight: normal; text-decoration: none; line-height: 14px; color: rgb(0, 0, 0);&quot;&gt;승리 분기점 대사 구간 &lt;/span&gt;&lt;/div&gt;&lt;div align=&quot;left&quot;&gt;&lt;span style=&quot;font-size: 12px; font-family: Arial; white-space: pre-wrap; font-weight: normal; text-decoration: none; line-height: 14px; color: rgb(0, 0, 0);&quot;&gt; &lt;/span&gt;&lt;/div&gt;&lt;div align=&quot;left&quot;&gt;&lt;span style=&quot;font-size: 12px; font-family: Arial; white-space: pre-wrap; font-weight: normal; text-decoration: none; line-height: 14px; color: rgb(0, 0, 0);&quot;&gt;buttons = List&amp;lt;Button&amp;gt; &lt;/span&gt;&lt;/div&gt;&lt;div align=&quot;left&quot;&gt;&lt;span style=&quot;font-size: 12px; font-family: Arial; white-space: pre-wrap; font-weight: normal; text-decoration: none; line-height: 14px; color: rgb(0, 0, 0);&quot;&gt;잠금 및 잠금해제동작에 쓰이는 버튼들 목록 &lt;/span&gt;&lt;/div&gt;&lt;div align=&quot;left&quot;&gt;&lt;span style=&quot;font-size: 12px; font-family: Arial; white-space: pre-wrap; font-weight: normal; text-decoration: none; line-height: 14px; color: rgb(0, 0, 0);&quot;&gt; &lt;/span&gt;&lt;/div&gt;&lt;div align=&quot;left&quot;&gt;&lt;span style=&quot;font-size: 12px; font-family: Arial; white-space: pre-wrap; font-weight: normal; text-decoration: none; line-height: 14px; color: rgb(0, 0, 0);&quot;&gt;thisStageTime = ContextList  &lt;/span&gt;&lt;/div&gt;&lt;div align=&quot;left&quot;&gt;&lt;span style=&quot;font-size: 12px; font-family: Arial; white-space: pre-wrap; font-weight: normal; text-decoration: none; line-height: 14px; color: rgb(0, 0, 0);&quot;&gt;해당 스테이지 시간 경과 표시용 &lt;/span&gt;&lt;/div&gt;&lt;div align=&quot;left&quot;&gt;&lt;span style=&quot;font-size: 12px; font-family: Arial; white-space: pre-wrap; font-weight: normal; text-decoration: none; line-height: 14px; color: rgb(0, 0, 0);&quot;&gt; &lt;/span&gt;&lt;/div&gt;&lt;div align=&quot;left&quot;&gt;&lt;span style=&quot;font-size: 12px; font-family: Arial; white-space: pre-wrap; font-weight: normal; text-decoration: none; line-height: 14px; color: rgb(0, 0, 0);&quot;&gt;totalTime = ContextList  &lt;/span&gt;&lt;/div&gt;&lt;div align=&quot;left&quot;&gt;&lt;span style=&quot;font-size: 12px; font-family: Arial; white-space: pre-wrap; font-weight: normal; text-decoration: none; line-height: 14px; color: rgb(0, 0, 0);&quot;&gt;전체 게임 진행시간 표기용&lt;/span&gt;&lt;/div&gt;&lt;/div&gt;" style="shape=rect;shadow=1;strokeWidth=2;fillColor=#ffffff;strokeColor=#000000;opacity=100.0;html=1;nl2Br=0;verticalAlign=top;align=left;spacingLeft=0.0;spacingRight=0;spacingTop=-5.0;spacingBottom=2;whiteSpace=wrap;gliffyId=3;" parent="2" vertex="1">
          <mxGeometry y="32" width="390" height="494" as="geometry" />
        </mxCell>
        <mxCell id="5" value="&lt;div style=&#39;width: 387.0px;height:auto;word-break: break-word;&#39;&gt;&lt;div align=&quot;left&quot;&gt;&lt;span style=&quot;font-size: 12px; font-family: Arial; white-space: pre-wrap; font-weight: normal; text-decoration: none; line-height: 14px; color: rgb(0, 0, 0);&quot;&gt;Init() = public virtual void &lt;/span&gt;&lt;/div&gt;&lt;div align=&quot;left&quot;&gt;&lt;span style=&quot;font-size: 12px; font-family: Arial; white-space: pre-wrap; font-weight: normal; text-decoration: none; line-height: 14px; color: rgb(0, 0, 0);&quot;&gt;초기화 함수 &lt;/span&gt;&lt;/div&gt;&lt;div align=&quot;left&quot;&gt;&lt;span style=&quot;font-size: 12px; font-family: Arial; white-space: pre-wrap; font-weight: normal; text-decoration: none; line-height: 14px; color: rgb(0, 0, 0);&quot;&gt; &lt;/span&gt;&lt;/div&gt;&lt;div align=&quot;left&quot;&gt;&lt;span style=&quot;font-size: 12px; font-family: Arial; white-space: pre-wrap; font-weight: normal; text-decoration: none; line-height: 14px; color: rgb(0, 0, 0);&quot;&gt;Restart() = public virtual void &lt;/span&gt;&lt;/div&gt;&lt;div align=&quot;left&quot;&gt;&lt;span style=&quot;font-size: 12px; font-family: Arial; white-space: pre-wrap; font-weight: normal; text-decoration: none; line-height: 14px; color: rgb(0, 0, 0);&quot;&gt;진행중인 스테이지 재시작 &lt;/span&gt;&lt;/div&gt;&lt;div align=&quot;left&quot;&gt;&lt;span style=&quot;font-size: 12px; font-family: Arial; white-space: pre-wrap; font-weight: normal; text-decoration: none; line-height: 14px; color: rgb(0, 0, 0);&quot;&gt; &lt;/span&gt;&lt;/div&gt;&lt;div align=&quot;left&quot;&gt;&lt;span style=&quot;font-size: 12px; font-family: Arial; white-space: pre-wrap; font-weight: normal; text-decoration: none; line-height: 14px; color: rgb(0, 0, 0);&quot;&gt;Resume() = public virtual void &lt;/span&gt;&lt;/div&gt;&lt;div align=&quot;left&quot;&gt;&lt;span style=&quot;font-size: 12px; font-family: Arial; white-space: pre-wrap; font-weight: normal; text-decoration: none; line-height: 14px; color: rgb(0, 0, 0);&quot;&gt;게임 계속 진행 &lt;/span&gt;&lt;/div&gt;&lt;div align=&quot;left&quot;&gt;&lt;span style=&quot;font-size: 12px; font-family: Arial; white-space: pre-wrap; font-weight: normal; text-decoration: none; line-height: 14px; color: rgb(0, 0, 0);&quot;&gt; &lt;/span&gt;&lt;/div&gt;&lt;div align=&quot;left&quot;&gt;&lt;span style=&quot;font-size: 12px; font-family: Arial; white-space: pre-wrap; font-weight: normal; text-decoration: none; line-height: 14px; color: rgb(0, 0, 0);&quot;&gt;Option() = public virtual void &lt;/span&gt;&lt;/div&gt;&lt;div align=&quot;left&quot;&gt;&lt;span style=&quot;font-size: 12px; font-family: Arial; white-space: pre-wrap; font-weight: normal; text-decoration: none; line-height: 14px; color: rgb(0, 0, 0);&quot;&gt;환경설정 &lt;/span&gt;&lt;/div&gt;&lt;div align=&quot;left&quot;&gt;&lt;span style=&quot;font-size: 12px; font-family: Arial; white-space: pre-wrap; font-weight: normal; text-decoration: none; line-height: 14px; color: rgb(0, 0, 0);&quot;&gt; &lt;/span&gt;&lt;/div&gt;&lt;div align=&quot;left&quot;&gt;&lt;span style=&quot;font-size: 12px; font-family: Arial; white-space: pre-wrap; font-weight: normal; text-decoration: none; line-height: 14px; color: rgb(0, 0, 0);&quot;&gt;GoBack() = public virtual void &lt;/span&gt;&lt;/div&gt;&lt;div align=&quot;left&quot;&gt;&lt;span style=&quot;font-size: 12px; font-family: Arial; white-space: pre-wrap; font-weight: normal; text-decoration: none; line-height: 14px; color: rgb(0, 0, 0);&quot;&gt;스테이지 선택 화면으로 이동 &lt;/span&gt;&lt;/div&gt;&lt;div align=&quot;left&quot;&gt;&lt;span style=&quot;font-size: 12px; font-family: Arial; white-space: pre-wrap; font-weight: normal; text-decoration: none; line-height: 14px; color: rgb(0, 0, 0);&quot;&gt; &lt;/span&gt;&lt;/div&gt;&lt;div align=&quot;left&quot;&gt;&lt;span style=&quot;font-size: 12px; font-family: Arial; white-space: pre-wrap; font-weight: normal; text-decoration: none; line-height: 14px; color: rgb(0, 0, 0);&quot;&gt;StageClear(ContextList hint, stageSelectDataIndex) = public virtual void &lt;/span&gt;&lt;/div&gt;&lt;div align=&quot;left&quot;&gt;&lt;span style=&quot;font-size: 12px; font-family: Arial; white-space: pre-wrap; font-weight: normal; text-decoration: none; line-height: 14px; color: rgb(0, 0, 0);&quot;&gt;승리 동작 처리 &lt;/span&gt;&lt;/div&gt;&lt;div align=&quot;left&quot;&gt;&lt;span style=&quot;font-size: 12px; font-family: Arial; white-space: pre-wrap; font-weight: normal; text-decoration: none; line-height: 14px; color: rgb(0, 0, 0);&quot;&gt; &lt;/span&gt;&lt;/div&gt;&lt;div align=&quot;left&quot;&gt;&lt;span style=&quot;font-size: 12px; font-family: Arial; white-space: pre-wrap; font-weight: normal; text-decoration: none; line-height: 14px; color: rgb(0, 0, 0);&quot;&gt;GameOver(Sprite, ContextList) = public virtual void &lt;/span&gt;&lt;/div&gt;&lt;div align=&quot;left&quot;&gt;&lt;span style=&quot;font-size: 12px; font-family: Arial; white-space: pre-wrap; font-weight: normal; text-decoration: none; line-height: 14px; color: rgb(0, 0, 0);&quot;&gt;패배 동작 처리 &lt;/span&gt;&lt;/div&gt;&lt;div align=&quot;left&quot;&gt;&lt;span style=&quot;font-size: 12px; font-family: Arial; white-space: pre-wrap; font-weight: normal; text-decoration: none; line-height: 14px; color: rgb(0, 0, 0);&quot;&gt; &lt;/span&gt;&lt;/div&gt;&lt;div align=&quot;left&quot;&gt;&lt;span style=&quot;font-size: 12px; font-family: Arial; white-space: pre-wrap; font-weight: normal; text-decoration: none; line-height: 14px; color: rgb(0, 0, 0);&quot;&gt;ButtonLock(bool) = public virtual void &lt;/span&gt;&lt;/div&gt;&lt;div align=&quot;left&quot;&gt;&lt;span style=&quot;font-size: 12px; font-family: Arial; white-space: pre-wrap; font-weight: normal; text-decoration: none; line-height: 14px; color: rgb(0, 0, 0);&quot;&gt;버튼들 활성화 / 비활성화 &lt;/span&gt;&lt;/div&gt;&lt;div align=&quot;left&quot;&gt;&lt;span style=&quot;font-size: 12px; font-family: Arial; white-space: pre-wrap; font-weight: normal; text-decoration: none; line-height: 14px; color: rgb(0, 0, 0);&quot;&gt; &lt;/span&gt;&lt;/div&gt;&lt;div align=&quot;left&quot;&gt;&lt;span style=&quot;font-size: 12px; font-family: Arial; white-space: pre-wrap; font-weight: normal; text-decoration: none; line-height: 14px; color: rgb(0, 0, 0);&quot;&gt;Exit() = public virtual void &lt;/span&gt;&lt;/div&gt;&lt;div align=&quot;left&quot;&gt;&lt;span style=&quot;font-size: 12px; font-family: Arial; white-space: pre-wrap; font-weight: normal; text-decoration: none; line-height: 14px; color: rgb(0, 0, 0);&quot;&gt;화면 비활성화 &lt;/span&gt;&lt;/div&gt;&lt;div align=&quot;left&quot;&gt;&lt;span style=&quot;font-size: 12px; font-family: Arial; white-space: pre-wrap; font-weight: normal; text-decoration: none; line-height: 14px; color: rgb(0, 0, 0);&quot;&gt; &lt;/span&gt;&lt;/div&gt;&lt;div align=&quot;left&quot;&gt;&lt;span style=&quot;font-size: 12px; font-family: Arial; white-space: pre-wrap; font-weight: normal; text-decoration: none; line-height: 14px; color: rgb(0, 0, 0);&quot;&gt;SetDialog(index) = public virtual void  &lt;/span&gt;&lt;/div&gt;&lt;div align=&quot;left&quot;&gt;&lt;span style=&quot;font-size: 12px; font-family: Arial; white-space: pre-wrap; font-weight: normal; text-decoration: none; line-height: 14px; color: rgb(0, 0, 0);&quot;&gt;확인창에 이벤트 붙여 실행&lt;/span&gt;&lt;/div&gt;&lt;/div&gt;" style="shape=rect;shadow=1;strokeWidth=2;fillColor=#ffffff;strokeColor=#000000;opacity=100.0;html=1;nl2Br=0;verticalAlign=top;align=left;spacingLeft=0.0;spacingRight=0;spacingTop=-5.0;spacingBottom=2;whiteSpace=wrap;gliffyId=5;" parent="2" vertex="1">
          <mxGeometry y="526" width="390" height="410" as="geometry" />
        </mxCell>
        <mxCell id="6" style="shape=folder;fontStyle=1;spacingTop=10;tabWidth=40;tabHeight=14;tabPosition=left;shadow=1;strokeWidth=2;fillColor=#FFFFFF;strokeColor=#000000;opacity=100.0;gliffyId=235;" parent="1" vertex="1">
          <mxGeometry x="4170" y="307.5684814453125" width="140" height="75" as="geometry" />
        </mxCell>
        <mxCell id="7" style="shape=rect;shadow=1;strokeWidth=2;fillColor=#FFFFFF;strokeColor=#000000;opacity=100.0;gliffyId=236;" parent="6" vertex="1">
          <mxGeometry width="56" height="10" as="geometry" />
        </mxCell>
        <mxCell id="8" value="&lt;div style=&#39;width: 137.0px;height:auto;word-break: break-word;&#39;&gt;&lt;div align=&quot;center&quot;&gt;&lt;span style=&quot;font-size: 12px; font-family: Arial; white-space: pre-wrap; font-weight: bold; text-decoration: none; line-height: 14px; color: rgb(0, 0, 0);&quot;&gt;유니티 물리적 파일구조 &lt;/span&gt;&lt;/div&gt;&lt;div align=&quot;center&quot;&gt;&lt;span style=&quot;font-size: 12px; font-family: Arial; white-space: pre-wrap; font-weight: bold; text-decoration: none; line-height: 14px; color: rgb(0, 0, 0);&quot;&gt;Asset&lt;/span&gt;&lt;/div&gt;&lt;/div&gt;" style="shape=rect;shadow=1;strokeWidth=2;fillColor=#FFFFFF;strokeColor=#000000;opacity=100.0;html=1;nl2Br=0;verticalAlign=middle;align=center;spacingLeft=0.0;spacingRight=0;whiteSpace=wrap;gliffyId=237;" parent="6" vertex="1">
          <mxGeometry y="10" width="140" height="65" as="geometry" />
        </mxCell>
        <mxCell id="9" style="shape=folder;fontStyle=1;spacingTop=10;tabWidth=40;tabHeight=14;tabPosition=left;shadow=1;strokeWidth=2;fillColor=#FFFFFF;strokeColor=#000000;opacity=100.0;gliffyId=226;" parent="1" vertex="1">
          <mxGeometry x="4360" y="363.9014892578125" width="90" height="50" as="geometry" />
        </mxCell>
        <mxCell id="10" style="shape=rect;shadow=1;strokeWidth=2;fillColor=#FFFFFF;strokeColor=#000000;opacity=100.0;gliffyId=227;" parent="9" vertex="1">
          <mxGeometry width="36" height="10" as="geometry" />
        </mxCell>
        <mxCell id="11" value="&lt;div style=&#39;width: 87.0px;height:auto;word-break: break-word;&#39;&gt;&lt;div align=&quot;center&quot;&gt;&lt;span style=&quot;font-size: 12px; font-family: Arial; white-space: pre-wrap; font-weight: bold; text-decoration: none; line-height: 14px; color: rgb(0, 0, 0);&quot;&gt;Scripts&lt;/span&gt;&lt;/div&gt;&lt;/div&gt;" style="shape=rect;shadow=1;strokeWidth=2;fillColor=#FFFFFF;strokeColor=#000000;opacity=100.0;html=1;nl2Br=0;verticalAlign=middle;align=center;spacingLeft=0.0;spacingRight=0;whiteSpace=wrap;gliffyId=228;" parent="9" vertex="1">
          <mxGeometry y="10" width="90" height="40" as="geometry" />
        </mxCell>
        <mxCell id="12" style="shape=filledEdge;strokeWidth=2;strokeColor=#000000;fillColor=none;startArrow=none;startFill=0;startSize=6;endArrow=none;endFill=0;endSize=6;rounded=0;gliffyId=225;exitX=0.0;exitY=0.5;exitPerimeter=0;entryX=1.0;entryY=0.5;entryPerimeter=0;" parent="1" source="9" target="6" edge="1">
          <mxGeometry width="100" height="100" relative="1" as="geometry">
            <Array as="points">
              <mxPoint x="4360" y="388.9014892578125" />
              <mxPoint x="4310" y="345.0684814453125" />
            </Array>
          </mxGeometry>
        </mxCell>
        <mxCell id="13" value="&lt;div style=&#39;width: 131.4px;height:auto;word-break: break-word;&#39;&gt;&lt;div align=&quot;center&quot;&gt;&lt;span style=&quot;font-size: 12px; font-family: Arial; white-space: pre-wrap; font-weight: bold; text-decoration: none; line-height: 14px; color: rgb(0, 0, 0);&quot;&gt;InGameMenu.cs &lt;/span&gt;&lt;/div&gt;&lt;div align=&quot;center&quot;&gt;&lt;span style=&quot;font-size: 12px; font-family: Arial; white-space: pre-wrap; font-weight: bold; text-decoration: none; line-height: 14px; color: rgb(0, 0, 0);&quot;&gt;InGameUIManager.cs&lt;/span&gt;&lt;/div&gt;&lt;/div&gt;" style="shape=note;size=10;shadow=0;strokeWidth=1;fillColor=#FFFFFF;strokeColor=#000000;opacity=100.0;html=1;nl2Br=0;verticalAlign=middle;align=center;spacingLeft=2.8;spacingRight=0;whiteSpace=wrap;gliffyId=218;" parent="1" vertex="1">
          <mxGeometry x="4610" y="370.1514892578125" width="140" height="37.5" as="geometry" />
        </mxCell>
        <mxCell id="14" style="shape=filledEdge;strokeWidth=2;strokeColor=#000000;fillColor=none;startArrow=none;startFill=0;startSize=6;endArrow=none;endFill=0;endSize=6;rounded=0;gliffyId=217;edgeStyle=orthogonalEdgeStyle;" parent="1" source="13" target="15" edge="1">
          <mxGeometry width="100" height="100" relative="1" as="geometry">
            <Array as="points">
              <mxPoint x="4610" y="388.9014892578125" />
              <mxPoint x="4580.35302734375" y="388.9014892578125" />
            </Array>
          </mxGeometry>
        </mxCell>
        <mxCell id="15" style="shape=folder;fontStyle=1;spacingTop=10;tabWidth=40;tabHeight=14;tabPosition=left;shadow=1;strokeWidth=2;fillColor=#FFFFFF;strokeColor=#000000;opacity=100.0;gliffyId=194;" parent="1" vertex="1">
          <mxGeometry x="4490.35302734375" y="363.9014892578125" width="90" height="50" as="geometry" />
        </mxCell>
        <mxCell id="16" style="shape=rect;shadow=1;strokeWidth=2;fillColor=#FFFFFF;strokeColor=#000000;opacity=100.0;gliffyId=195;" parent="15" vertex="1">
          <mxGeometry width="36" height="10" as="geometry" />
        </mxCell>
        <mxCell id="17" value="&lt;div style=&#39;width: 87.0px;height:auto;word-break: break-word;&#39;&gt;&lt;div align=&quot;center&quot;&gt;&lt;span style=&quot;font-size: 12px; font-family: Arial; white-space: pre-wrap; font-weight: bold; text-decoration: none; line-height: 14px; color: rgb(0, 0, 0);&quot;&gt;MainStage&lt;/span&gt;&lt;/div&gt;&lt;/div&gt;" style="shape=rect;shadow=1;strokeWidth=2;fillColor=#FFFFFF;strokeColor=#000000;opacity=100.0;html=1;nl2Br=0;verticalAlign=middle;align=center;spacingLeft=0.0;spacingRight=0;whiteSpace=wrap;gliffyId=196;" parent="15" vertex="1">
          <mxGeometry y="10" width="90" height="40" as="geometry" />
        </mxCell>
        <mxCell id="18" style="shape=filledEdge;strokeWidth=2;strokeColor=#000000;fillColor=none;startArrow=none;startFill=0;startSize=6;endArrow=none;endFill=0;endSize=6;rounded=0;gliffyId=193;edgeStyle=orthogonalEdgeStyle;" parent="1" source="15" target="9" edge="1">
          <mxGeometry width="100" height="100" relative="1" as="geometry">
            <Array as="points">
              <mxPoint x="4490.35302734375" y="388.9014892578125" />
              <mxPoint x="4450" y="388.9014892578125" />
            </Array>
          </mxGeometry>
        </mxCell>
        <mxCell id="19" style="shape=folder;fontStyle=1;spacingTop=10;tabWidth=40;tabHeight=14;tabPosition=left;shadow=1;strokeWidth=2;fillColor=#FFFFFF;strokeColor=#000000;opacity=100.0;gliffyId=189;" parent="1" vertex="1">
          <mxGeometry x="4360" y="284.2872314453125" width="90" height="46.5625" as="geometry" />
        </mxCell>
        <mxCell id="20" style="shape=rect;shadow=1;strokeWidth=2;fillColor=#FFFFFF;strokeColor=#000000;opacity=100.0;gliffyId=190;" parent="19" vertex="1">
          <mxGeometry width="36" height="10" as="geometry" />
        </mxCell>
        <mxCell id="21" value="&lt;div style=&#39;width: 87.0px;height:auto;word-break: break-word;&#39;&gt;&lt;div align=&quot;center&quot;&gt;&lt;span style=&quot;font-size: 12px; font-family: Arial; white-space: pre-wrap; font-weight: bold; text-decoration: none; line-height: 14px; color: rgb(0, 0, 0);&quot;&gt;DataBase&lt;/span&gt;&lt;/div&gt;&lt;/div&gt;" style="shape=rect;shadow=1;strokeWidth=2;fillColor=#FFFFFF;strokeColor=#000000;opacity=100.0;html=1;nl2Br=0;verticalAlign=middle;align=center;spacingLeft=0.0;spacingRight=0;whiteSpace=wrap;gliffyId=191;" parent="19" vertex="1">
          <mxGeometry y="10" width="90" height="36.5625" as="geometry" />
        </mxCell>
        <mxCell id="22" style="shape=filledEdge;strokeWidth=2;strokeColor=#000000;fillColor=none;startArrow=none;startFill=0;startSize=6;endArrow=none;endFill=0;endSize=6;rounded=0;gliffyId=188;exitX=1.0;exitY=0.5;exitPerimeter=0;entryX=0.0;entryY=0.5;entryPerimeter=0;" parent="1" source="6" target="19" edge="1">
          <mxGeometry width="100" height="100" relative="1" as="geometry">
            <Array as="points">
              <mxPoint x="4310" y="345.0684814453125" />
              <mxPoint x="4360" y="307.5684814453125" />
            </Array>
          </mxGeometry>
        </mxCell>
        <mxCell id="23" style="shape=rect;fillColor=none;strokeColor=none;shadow=1;strokeWidth=2;opacity=100.0;gliffyId=254;" parent="1" vertex="1">
          <mxGeometry x="740" y="230" width="390" height="558" as="geometry" />
        </mxCell>
        <mxCell id="24" value="&lt;div style=&#39;width: 387.0px;height:auto;word-break: break-word;&#39;&gt;&lt;div align=&quot;center&quot;&gt;&lt;span style=&quot;font-size: 12px; font-family: Arial; white-space: pre-wrap; font-weight: bold; text-decoration: none; line-height: 14px; color: rgb(0, 0, 0);&quot;&gt;InGameUIManager : MonoBehaviour &lt;/span&gt;&lt;/div&gt;&lt;div align=&quot;center&quot;&gt;&lt;span style=&quot;font-size: 12px; font-family: Arial; white-space: pre-wrap; font-weight: bold; text-decoration: none; line-height: 14px; color: rgb(0, 0, 0);&quot;&gt;스테이지 진행 도중 필요한 UI를 관리하는 컴포넌트&lt;/span&gt;&lt;/div&gt;&lt;/div&gt;" style="shape=rect;shadow=1;strokeWidth=2;fillColor=#ffffff;strokeColor=#000000;opacity=100.0;html=1;nl2Br=0;verticalAlign=top;align=center;spacingLeft=0.0;spacingRight=0;spacingTop=-5.0;spacingBottom=2;whiteSpace=wrap;gliffyId=255;" parent="23" vertex="1">
          <mxGeometry width="390" height="32" as="geometry" />
        </mxCell>
        <mxCell id="25" value="&lt;div style=&#39;width: 387.0px;height:auto;word-break: break-word;&#39;&gt;&lt;div align=&quot;left&quot;&gt;&lt;span style=&quot;font-size: 12px; font-family: Arial; white-space: pre-wrap; font-weight: normal; text-decoration: none; line-height: 14px; color: rgb(0, 0, 0);&quot;&gt;gameOver, stageClear, pause = InGameMenu  &lt;/span&gt;&lt;/div&gt;&lt;div align=&quot;left&quot;&gt;&lt;span style=&quot;font-size: 12px; font-family: Arial; white-space: pre-wrap; font-weight: normal; text-decoration: none; line-height: 14px; color: rgb(0, 0, 0);&quot;&gt;각각의 화면 구성 컴포넌트 &lt;/span&gt;&lt;/div&gt;&lt;div align=&quot;left&quot;&gt;&lt;span style=&quot;font-size: 12px; font-family: Arial; white-space: pre-wrap; font-weight: normal; text-decoration: none; line-height: 14px; color: rgb(0, 0, 0);&quot;&gt; &lt;/span&gt;&lt;/div&gt;&lt;div align=&quot;left&quot;&gt;&lt;span style=&quot;font-size: 12px; font-family: Arial; white-space: pre-wrap; font-weight: normal; text-decoration: none; line-height: 14px; color: rgb(0, 0, 0);&quot;&gt;optionList, pauseList, clearList, overList = ObjList &lt;/span&gt;&lt;/div&gt;&lt;div align=&quot;left&quot;&gt;&lt;span style=&quot;font-size: 12px; font-family: Arial; white-space: pre-wrap; font-weight: normal; text-decoration: none; line-height: 14px; color: rgb(0, 0, 0);&quot;&gt;각종 화면 리스트 &lt;/span&gt;&lt;/div&gt;&lt;div align=&quot;left&quot;&gt;&lt;span style=&quot;font-size: 12px; font-family: Arial; white-space: pre-wrap; font-weight: normal; text-decoration: none; line-height: 14px; color: rgb(0, 0, 0);&quot;&gt; &lt;/span&gt;&lt;/div&gt;&lt;div align=&quot;left&quot;&gt;&lt;span style=&quot;font-size: 12px; font-family: Arial; white-space: pre-wrap; font-weight: normal; text-decoration: none; line-height: 14px; color: rgb(0, 0, 0);&quot;&gt;option = Option  &lt;/span&gt;&lt;/div&gt;&lt;div align=&quot;left&quot;&gt;&lt;span style=&quot;font-size: 12px; font-family: Arial; white-space: pre-wrap; font-weight: normal; text-decoration: none; line-height: 14px; color: rgb(0, 0, 0);&quot;&gt;현재 옵션 화면 &lt;/span&gt;&lt;/div&gt;&lt;div align=&quot;left&quot;&gt;&lt;span style=&quot;font-size: 12px; font-family: Arial; white-space: pre-wrap; font-weight: normal; text-decoration: none; line-height: 14px; color: rgb(0, 0, 0);&quot;&gt; &lt;/span&gt;&lt;/div&gt;&lt;div align=&quot;left&quot;&gt;&lt;span style=&quot;font-size: 12px; font-family: Arial; white-space: pre-wrap; font-weight: normal; text-decoration: none; line-height: 14px; color: rgb(0, 0, 0);&quot;&gt;UIPos, menuPos, optionPos = RectTransform &lt;/span&gt;&lt;/div&gt;&lt;div align=&quot;left&quot;&gt;&lt;span style=&quot;font-size: 12px; font-family: Arial; white-space: pre-wrap; font-weight: normal; text-decoration: none; line-height: 14px; color: rgb(0, 0, 0);&quot;&gt;각각의 화면을 표시하기 위한 위치 &lt;/span&gt;&lt;/div&gt;&lt;div align=&quot;left&quot;&gt;&lt;span style=&quot;font-size: 12px; font-family: Arial; white-space: pre-wrap; font-weight: normal; text-decoration: none; line-height: 14px; color: rgb(0, 0, 0);&quot;&gt; &lt;/span&gt;&lt;/div&gt;&lt;div align=&quot;left&quot;&gt;&lt;span style=&quot;font-size: 12px; font-family: Arial; white-space: pre-wrap; font-weight: normal; text-decoration: none; line-height: 14px; color: rgb(0, 0, 0);&quot;&gt;usable = public static bool  &lt;/span&gt;&lt;/div&gt;&lt;div align=&quot;left&quot;&gt;&lt;span style=&quot;font-size: 12px; font-family: Arial; white-space: pre-wrap; font-weight: normal; text-decoration: none; line-height: 14px; color: rgb(0, 0, 0);&quot;&gt;사용 가능한지 여부 &lt;/span&gt;&lt;/div&gt;&lt;div align=&quot;left&quot;&gt;&lt;span style=&quot;font-size: 12px; font-family: Arial; white-space: pre-wrap; font-weight: normal; text-decoration: none; line-height: 14px; color: rgb(0, 0, 0);&quot;&gt; &lt;/span&gt;&lt;/div&gt;&lt;div align=&quot;left&quot;&gt;&lt;span style=&quot;font-size: 12px; font-family: Arial; white-space: pre-wrap; font-weight: normal; text-decoration: none; line-height: 14px; color: rgb(0, 0, 0);&quot;&gt;stageSelectDatas = public static StageSelects get &lt;/span&gt;&lt;/div&gt;&lt;div align=&quot;left&quot;&gt;&lt;span style=&quot;font-size: 12px; font-family: Arial; white-space: pre-wrap; font-weight: normal; text-decoration: none; line-height: 14px; color: rgb(0, 0, 0);&quot;&gt;스테이지 클리어 구현을 위한 데이터&lt;/span&gt;&lt;/div&gt;&lt;/div&gt;" style="shape=rect;shadow=1;strokeWidth=2;fillColor=#ffffff;strokeColor=#000000;opacity=100.0;html=1;nl2Br=0;verticalAlign=top;align=left;spacingLeft=0.0;spacingRight=0;spacingTop=-5.0;spacingBottom=2;whiteSpace=wrap;gliffyId=257;" parent="23" vertex="1">
          <mxGeometry y="32" width="390" height="242" as="geometry" />
        </mxCell>
        <mxCell id="26" value="&lt;div style=&#39;width: 387.0px;height:auto;word-break: break-word;&#39;&gt;&lt;div align=&quot;left&quot;&gt;&lt;span style=&quot;font-size: 12px; font-family: Arial; white-space: pre-wrap; font-weight: normal; text-decoration: none; line-height: 14px; color: rgb(0, 0, 0);&quot;&gt;Init() = public void &lt;/span&gt;&lt;/div&gt;&lt;div align=&quot;left&quot;&gt;&lt;span style=&quot;font-size: 12px; font-family: Arial; white-space: pre-wrap; font-weight: normal; text-decoration: none; line-height: 14px; color: rgb(0, 0, 0);&quot;&gt;초기화 함수 &lt;/span&gt;&lt;/div&gt;&lt;div align=&quot;left&quot;&gt;&lt;span style=&quot;font-size: 12px; font-family: Arial; white-space: pre-wrap; font-weight: normal; text-decoration: none; line-height: 14px; color: rgb(0, 0, 0);&quot;&gt; &lt;/span&gt;&lt;/div&gt;&lt;div align=&quot;left&quot;&gt;&lt;span style=&quot;font-size: 12px; font-family: Arial; white-space: pre-wrap; font-weight: normal; text-decoration: none; line-height: 14px; color: rgb(0, 0, 0);&quot;&gt;MakeUI() = public static void &lt;/span&gt;&lt;/div&gt;&lt;div align=&quot;left&quot;&gt;&lt;span style=&quot;font-size: 12px; font-family: Arial; white-space: pre-wrap; font-weight: normal; text-decoration: none; line-height: 14px; color: rgb(0, 0, 0);&quot;&gt;UI화면 구성 &lt;/span&gt;&lt;/div&gt;&lt;div align=&quot;left&quot;&gt;&lt;span style=&quot;font-size: 12px; font-family: Arial; white-space: pre-wrap; font-weight: normal; text-decoration: none; line-height: 14px; color: rgb(0, 0, 0);&quot;&gt; &lt;/span&gt;&lt;/div&gt;&lt;div align=&quot;left&quot;&gt;&lt;span style=&quot;font-size: 12px; font-family: Arial; white-space: pre-wrap; font-weight: normal; text-decoration: none; line-height: 14px; color: rgb(0, 0, 0);&quot;&gt;Option() = public static void  &lt;/span&gt;&lt;/div&gt;&lt;div align=&quot;left&quot;&gt;&lt;span style=&quot;font-size: 12px; font-family: Arial; white-space: pre-wrap; font-weight: normal; text-decoration: none; line-height: 14px; color: rgb(0, 0, 0);&quot;&gt;옵션 창을 연다 &lt;/span&gt;&lt;/div&gt;&lt;div align=&quot;left&quot;&gt;&lt;span style=&quot;font-size: 12px; font-family: Arial; white-space: pre-wrap; font-weight: normal; text-decoration: none; line-height: 14px; color: rgb(0, 0, 0);&quot;&gt; &lt;/span&gt;&lt;/div&gt;&lt;div align=&quot;left&quot;&gt;&lt;span style=&quot;font-size: 12px; font-family: Arial; white-space: pre-wrap; font-weight: normal; text-decoration: none; line-height: 14px; color: rgb(0, 0, 0);&quot;&gt;StageClear(ContextList hint, stageSelectDataIndex) = public static void &lt;/span&gt;&lt;/div&gt;&lt;div align=&quot;left&quot;&gt;&lt;span style=&quot;font-size: 12px; font-family: Arial; white-space: pre-wrap; font-weight: normal; text-decoration: none; line-height: 14px; color: rgb(0, 0, 0);&quot;&gt;승리 동작 처리 &lt;/span&gt;&lt;/div&gt;&lt;div align=&quot;left&quot;&gt;&lt;span style=&quot;font-size: 12px; font-family: Arial; white-space: pre-wrap; font-weight: normal; text-decoration: none; line-height: 14px; color: rgb(0, 0, 0);&quot;&gt; &lt;/span&gt;&lt;/div&gt;&lt;div align=&quot;left&quot;&gt;&lt;span style=&quot;font-size: 12px; font-family: Arial; white-space: pre-wrap; font-weight: normal; text-decoration: none; line-height: 14px; color: rgb(0, 0, 0);&quot;&gt;GameOver(Sprite, ContextList) = public static void &lt;/span&gt;&lt;/div&gt;&lt;div align=&quot;left&quot;&gt;&lt;span style=&quot;font-size: 12px; font-family: Arial; white-space: pre-wrap; font-weight: normal; text-decoration: none; line-height: 14px; color: rgb(0, 0, 0);&quot;&gt;패배 동작 처리 &lt;/span&gt;&lt;/div&gt;&lt;div align=&quot;left&quot;&gt;&lt;span style=&quot;font-size: 12px; font-family: Arial; white-space: pre-wrap; font-weight: normal; text-decoration: none; line-height: 14px; color: rgb(0, 0, 0);&quot;&gt; &lt;/span&gt;&lt;/div&gt;&lt;div align=&quot;left&quot;&gt;&lt;span style=&quot;font-size: 12px; font-family: Arial; white-space: pre-wrap; font-weight: normal; text-decoration: none; line-height: 14px; color: rgb(0, 0, 0);&quot;&gt;Pause() = public static void  &lt;/span&gt;&lt;/div&gt;&lt;div align=&quot;left&quot;&gt;&lt;span style=&quot;font-size: 12px; font-family: Arial; white-space: pre-wrap; font-weight: normal; text-decoration: none; line-height: 14px; color: rgb(0, 0, 0);&quot;&gt;일시정지 메뉴 처리 &lt;/span&gt;&lt;/div&gt;&lt;div align=&quot;left&quot;&gt;&lt;span style=&quot;font-size: 12px; font-family: Arial; white-space: pre-wrap; font-weight: normal; text-decoration: none; line-height: 14px; color: rgb(0, 0, 0);&quot;&gt; &lt;/span&gt;&lt;/div&gt;&lt;div align=&quot;left&quot;&gt;&lt;span style=&quot;font-size: 12px; font-family: Arial; white-space: pre-wrap; font-weight: normal; text-decoration: none; line-height: 14px; color: rgb(0, 0, 0);&quot;&gt;ButtonLock(bool) = public static void  &lt;/span&gt;&lt;/div&gt;&lt;div align=&quot;left&quot;&gt;&lt;span style=&quot;font-size: 12px; font-family: Arial; white-space: pre-wrap; font-weight: normal; text-decoration: none; line-height: 14px; color: rgb(0, 0, 0);&quot;&gt;옵션창의 버튼 잠금 제어&lt;/span&gt;&lt;/div&gt;&lt;/div&gt;" style="shape=rect;shadow=1;strokeWidth=2;fillColor=#ffffff;strokeColor=#000000;opacity=100.0;html=1;nl2Br=0;verticalAlign=top;align=left;spacingLeft=0.0;spacingRight=0;spacingTop=-5.0;spacingBottom=2;whiteSpace=wrap;gliffyId=259;" parent="23" vertex="1">
          <mxGeometry y="274" width="390" height="284" as="geometry" />
        </mxCell>
        <mxCell id="27" value="&lt;div style=&#39;width: 133.0px;height:auto;word-break: break-word;&#39;&gt;&lt;div align=&quot;center&quot;&gt;&lt;span style=&quot;font-size: 12px; font-family: Arial; white-space: pre-wrap; font-weight: bold; text-decoration: none; line-height: 14px; color: rgb(0, 0, 0);&quot;&gt;PauseList = ObjList&lt;/span&gt;&lt;/div&gt;&lt;/div&gt;" style="shape=rect;shadow=1;strokeWidth=2;fillColor=#ffffff;strokeColor=#000000;opacity=100.0;html=1;nl2Br=0;verticalAlign=middle;align=center;spacingLeft=2.0;spacingRight=0;whiteSpace=wrap;gliffyId=261;" parent="1" vertex="1">
          <mxGeometry x="520" y="350" width="140" height="35" as="geometry" />
        </mxCell>
        <mxCell id="28" style="shape=filledEdge;strokeWidth=2;strokeColor=#000000;fillColor=none;startArrow=none;startFill=0;startSize=6;endArrow=none;endFill=0;endSize=6;rounded=0;gliffyId=263;exitX=1.0;exitY=0.5;exitPerimeter=0;entryX=0.0;entryY=0.5;entryPerimeter=0;" parent="1" source="2" target="27" edge="1">
          <mxGeometry width="100" height="100" relative="1" as="geometry">
            <Array as="points">
              <mxPoint x="440" y="509" />
              <mxPoint x="520" y="367.5" />
            </Array>
          </mxGeometry>
        </mxCell>
        <mxCell id="29" style="shape=filledEdge;strokeWidth=2;strokeColor=#000000;fillColor=none;startArrow=none;startFill=0;startSize=6;endArrow=none;endFill=0;endSize=6;rounded=0;gliffyId=264;exitX=1.0;exitY=0.5;exitPerimeter=0;entryX=0.0;entryY=0.5;entryPerimeter=0;" parent="1" source="27" target="23" edge="1">
          <mxGeometry width="100" height="100" relative="1" as="geometry">
            <Array as="points">
              <mxPoint x="660" y="367.5" />
              <mxPoint x="740" y="509" />
            </Array>
          </mxGeometry>
        </mxCell>
        <mxCell id="30" value="&lt;div style=&#39;width: 124.11562px;height:auto;word-break: break-word;&#39;&gt;&lt;div align=&quot;center&quot;&gt;&lt;span style=&quot;font-size: 12px; font-family: Arial; white-space: pre-wrap; font-weight: bold; text-decoration: none; line-height: 14px; color: rgb(0, 0, 0);&quot;&gt;Pause List  &lt;/span&gt;&lt;/div&gt;&lt;div align=&quot;center&quot;&gt;&lt;span style=&quot;font-size: 12px; font-family: Arial; white-space: pre-wrap; font-weight: bold; text-decoration: none; line-height: 14px; color: rgb(0, 0, 0);&quot;&gt;Clear List &lt;/span&gt;&lt;/div&gt;&lt;div align=&quot;center&quot;&gt;&lt;span style=&quot;font-size: 12px; font-family: Arial; white-space: pre-wrap; font-weight: bold; text-decoration: none; line-height: 14px; color: rgb(0, 0, 0);&quot;&gt;Over List &lt;/span&gt;&lt;/div&gt;&lt;/div&gt;" style="shape=note;size=10;shadow=0;strokeWidth=1;fillColor=#FFFFFF;strokeColor=#000000;opacity=100.0;html=1;nl2Br=0;verticalAlign=middle;align=center;spacingLeft=1.6296875;spacingRight=0;whiteSpace=wrap;gliffyId=271;" parent="1" vertex="1">
          <mxGeometry x="4620.03564453125" y="272.5684814453125" width="130.375" height="70" as="geometry" />
        </mxCell>
        <mxCell id="31" style="shape=folder;fontStyle=1;spacingTop=10;tabWidth=40;tabHeight=14;tabPosition=left;shadow=1;strokeWidth=2;fillColor=#FFFFFF;strokeColor=#000000;opacity=100.0;gliffyId=267;" parent="1" vertex="1">
          <mxGeometry x="4490.35302734375" y="284.2872314453125" width="90" height="46.5625" as="geometry" />
        </mxCell>
        <mxCell id="32" style="shape=rect;shadow=1;strokeWidth=2;fillColor=#FFFFFF;strokeColor=#000000;opacity=100.0;gliffyId=268;" parent="31" vertex="1">
          <mxGeometry width="36" height="10" as="geometry" />
        </mxCell>
        <mxCell id="33" value="&lt;div style=&#39;width: 87.0px;height:auto;word-break: break-word;&#39;&gt;&lt;div align=&quot;center&quot;&gt;&lt;span style=&quot;font-size: 12px; font-family: Arial; white-space: pre-wrap; font-weight: bold; text-decoration: none; line-height: 14px; color: rgb(0, 0, 0);&quot;&gt;System&lt;/span&gt;&lt;/div&gt;&lt;/div&gt;" style="shape=rect;shadow=1;strokeWidth=2;fillColor=#FFFFFF;strokeColor=#000000;opacity=100.0;html=1;nl2Br=0;verticalAlign=middle;align=center;spacingLeft=0.0;spacingRight=0;whiteSpace=wrap;gliffyId=269;" parent="31" vertex="1">
          <mxGeometry y="10" width="90" height="36.5625" as="geometry" />
        </mxCell>
        <mxCell id="34" style="shape=filledEdge;strokeWidth=2;strokeColor=#000000;fillColor=none;startArrow=none;startFill=0;startSize=6;endArrow=none;endFill=0;endSize=6;rounded=0;gliffyId=274;edgeStyle=orthogonalEdgeStyle;" parent="1" source="19" target="31" edge="1">
          <mxGeometry width="100" height="100" relative="1" as="geometry">
            <Array as="points">
              <mxPoint x="4450" y="307.5684814453125" />
              <mxPoint x="4490.35302734375" y="307.5684814453125" />
            </Array>
          </mxGeometry>
        </mxCell>
        <mxCell id="35" style="shape=filledEdge;strokeWidth=2;strokeColor=#000000;fillColor=none;startArrow=none;startFill=0;startSize=6;endArrow=none;endFill=0;endSize=6;rounded=0;gliffyId=275;edgeStyle=orthogonalEdgeStyle;" parent="1" source="31" target="30" edge="1">
          <mxGeometry width="100" height="100" relative="1" as="geometry">
            <Array as="points">
              <mxPoint x="4580.35302734375" y="307.5684814453125" />
              <mxPoint x="4620.03564453125" y="307.5684814453125" />
            </Array>
          </mxGeometry>
        </mxCell>
        <mxCell id="36" style="shape=folder;fontStyle=1;spacingTop=10;tabWidth=40;tabHeight=14;tabPosition=left;shadow=1;strokeWidth=2;fillColor=#FFFFFF;strokeColor=#000000;opacity=100.0;gliffyId=277;" parent="1" vertex="1">
          <mxGeometry x="4490.35302734375" y="200" width="90" height="46.5625" as="geometry" />
        </mxCell>
        <mxCell id="37" style="shape=rect;shadow=1;strokeWidth=2;fillColor=#FFFFFF;strokeColor=#000000;opacity=100.0;gliffyId=278;" parent="36" vertex="1">
          <mxGeometry width="36" height="10" as="geometry" />
        </mxCell>
        <mxCell id="38" value="&lt;div style=&#39;width: 87.0px;height:auto;word-break: break-word;&#39;&gt;&lt;div align=&quot;center&quot;&gt;&lt;span style=&quot;font-size: 12px; font-family: Arial; white-space: pre-wrap; font-weight: bold; text-decoration: none; line-height: 14px; color: rgb(0, 0, 0);&quot;&gt;MainStage&lt;/span&gt;&lt;/div&gt;&lt;/div&gt;" style="shape=rect;shadow=1;strokeWidth=2;fillColor=#FFFFFF;strokeColor=#000000;opacity=100.0;html=1;nl2Br=0;verticalAlign=middle;align=center;spacingLeft=0.0;spacingRight=0;whiteSpace=wrap;gliffyId=279;" parent="36" vertex="1">
          <mxGeometry y="10" width="90" height="36.5625" as="geometry" />
        </mxCell>
        <mxCell id="39" style="shape=filledEdge;strokeWidth=2;strokeColor=#000000;fillColor=none;startArrow=none;startFill=0;startSize=6;endArrow=none;endFill=0;endSize=6;rounded=0;gliffyId=282;exitX=1.0;exitY=0.5;exitPerimeter=0;entryX=0.0;entryY=0.5;entryPerimeter=0;" parent="1" source="19" target="36" edge="1">
          <mxGeometry width="100" height="100" relative="1" as="geometry">
            <Array as="points">
              <mxPoint x="4450" y="307.5684814453125" />
              <mxPoint x="4490.35302734375" y="223.28125" />
            </Array>
          </mxGeometry>
        </mxCell>
        <mxCell id="40" style="shape=folder;fontStyle=1;spacingTop=10;tabWidth=40;tabHeight=14;tabPosition=left;shadow=1;strokeWidth=2;fillColor=#FFFFFF;strokeColor=#000000;opacity=100.0;gliffyId=284;" parent="1" vertex="1">
          <mxGeometry x="4620.03564453125" y="200" width="90" height="46.5625" as="geometry" />
        </mxCell>
        <mxCell id="41" style="shape=rect;shadow=1;strokeWidth=2;fillColor=#FFFFFF;strokeColor=#000000;opacity=100.0;gliffyId=285;" parent="40" vertex="1">
          <mxGeometry width="36" height="10" as="geometry" />
        </mxCell>
        <mxCell id="42" value="&lt;div style=&#39;width: 87.0px;height:auto;word-break: break-word;&#39;&gt;&lt;div align=&quot;center&quot;&gt;&lt;span style=&quot;font-size: 12px; font-family: Arial; white-space: pre-wrap; font-weight: bold; text-decoration: none; line-height: 14px; color: rgb(0, 0, 0);&quot;&gt;Pause&lt;/span&gt;&lt;/div&gt;&lt;/div&gt;" style="shape=rect;shadow=1;strokeWidth=2;fillColor=#FFFFFF;strokeColor=#000000;opacity=100.0;html=1;nl2Br=0;verticalAlign=middle;align=center;spacingLeft=0.0;spacingRight=0;whiteSpace=wrap;gliffyId=286;" parent="40" vertex="1">
          <mxGeometry y="10" width="90" height="36.5625" as="geometry" />
        </mxCell>
        <mxCell id="43" style="shape=filledEdge;strokeWidth=2;strokeColor=#000000;fillColor=none;startArrow=none;startFill=0;startSize=6;endArrow=none;endFill=0;endSize=6;rounded=0;gliffyId=288;edgeStyle=orthogonalEdgeStyle;" parent="1" source="36" target="40" edge="1">
          <mxGeometry width="100" height="100" relative="1" as="geometry">
            <Array as="points">
              <mxPoint x="4580.35302734375" y="223.28125" />
              <mxPoint x="4620.03564453125" y="223.28125" />
            </Array>
          </mxGeometry>
        </mxCell>
        <mxCell id="44" value="&lt;div style=&#39;width: 133.0px;height:auto;word-break: break-word;&#39;&gt;&lt;div align=&quot;center&quot;&gt;&lt;span style=&quot;font-size: 12px; font-family: Arial; white-space: pre-wrap; font-weight: bold; text-decoration: none; line-height: 14px; color: rgb(0, 0, 0);&quot;&gt;ClearList = ObjList&lt;/span&gt;&lt;/div&gt;&lt;/div&gt;" style="shape=rect;shadow=1;strokeWidth=2;fillColor=#ffffff;strokeColor=#000000;opacity=100.0;html=1;nl2Br=0;verticalAlign=middle;align=center;spacingLeft=2.0;spacingRight=0;whiteSpace=wrap;gliffyId=290;" parent="1" vertex="1">
          <mxGeometry x="520" y="492.5" width="140" height="35" as="geometry" />
        </mxCell>
        <mxCell id="45" style="shape=folder;fontStyle=1;spacingTop=10;tabWidth=40;tabHeight=14;tabPosition=left;shadow=1;strokeWidth=2;fillColor=#FFFFFF;strokeColor=#000000;opacity=100.0;gliffyId=292;" parent="1" vertex="1">
          <mxGeometry x="4620.03564453125" y="140" width="90" height="46.5625" as="geometry" />
        </mxCell>
        <mxCell id="46" style="shape=rect;shadow=1;strokeWidth=2;fillColor=#FFFFFF;strokeColor=#000000;opacity=100.0;gliffyId=293;" parent="45" vertex="1">
          <mxGeometry width="36" height="10" as="geometry" />
        </mxCell>
        <mxCell id="47" value="&lt;div style=&#39;width: 87.0px;height:auto;word-break: break-word;&#39;&gt;&lt;div align=&quot;center&quot;&gt;&lt;span style=&quot;font-size: 12px; font-family: Arial; white-space: pre-wrap; font-weight: bold; text-decoration: none; line-height: 14px; color: rgb(0, 0, 0);&quot;&gt;Clear&lt;/span&gt;&lt;/div&gt;&lt;/div&gt;" style="shape=rect;shadow=1;strokeWidth=2;fillColor=#FFFFFF;strokeColor=#000000;opacity=100.0;html=1;nl2Br=0;verticalAlign=middle;align=center;spacingLeft=0.0;spacingRight=0;whiteSpace=wrap;gliffyId=294;" parent="45" vertex="1">
          <mxGeometry y="10" width="90" height="36.5625" as="geometry" />
        </mxCell>
        <mxCell id="48" style="shape=filledEdge;strokeWidth=2;strokeColor=#000000;fillColor=none;startArrow=none;startFill=0;startSize=6;endArrow=none;endFill=0;endSize=6;rounded=0;gliffyId=296;exitX=1.0;exitY=0.5;exitPerimeter=0;entryX=0.0;entryY=0.5;entryPerimeter=0;" parent="1" source="36" target="45" edge="1">
          <mxGeometry width="100" height="100" relative="1" as="geometry">
            <Array as="points">
              <mxPoint x="4580.35302734375" y="223.28125" />
              <mxPoint x="4620.03564453125" y="163.28125" />
            </Array>
          </mxGeometry>
        </mxCell>
        <mxCell id="49" style="shape=filledEdge;strokeWidth=2;strokeColor=#000000;fillColor=none;startArrow=none;startFill=0;startSize=6;endArrow=none;endFill=0;endSize=6;rounded=0;gliffyId=299;exitX=1.0;exitY=0.5;exitPerimeter=0;entryX=0.0;entryY=0.5;entryPerimeter=0;" parent="1" source="2" target="44" edge="1">
          <mxGeometry width="100" height="100" relative="1" as="geometry">
            <Array as="points">
              <mxPoint x="440" y="509" />
              <mxPoint x="520" y="510" />
            </Array>
          </mxGeometry>
        </mxCell>
        <mxCell id="50" style="shape=filledEdge;strokeWidth=2;strokeColor=#000000;fillColor=none;startArrow=none;startFill=0;startSize=6;endArrow=none;endFill=0;endSize=6;rounded=0;gliffyId=300;exitX=1.0;exitY=0.5;exitPerimeter=0;entryX=0.0;entryY=0.5;entryPerimeter=0;" parent="1" source="44" target="23" edge="1">
          <mxGeometry width="100" height="100" relative="1" as="geometry">
            <Array as="points">
              <mxPoint x="660" y="510" />
              <mxPoint x="740" y="509" />
            </Array>
          </mxGeometry>
        </mxCell>
        <mxCell id="51" value="&lt;div style=&#39;width: 133.0px;height:auto;word-break: break-word;&#39;&gt;&lt;div align=&quot;center&quot;&gt;&lt;span style=&quot;font-size: 12px; font-family: Arial; white-space: pre-wrap; font-weight: bold; text-decoration: none; line-height: 14px; color: rgb(0, 0, 0);&quot;&gt;OverList = ObjList&lt;/span&gt;&lt;/div&gt;&lt;/div&gt;" style="shape=rect;shadow=1;strokeWidth=2;fillColor=#ffffff;strokeColor=#000000;opacity=100.0;html=1;nl2Br=0;verticalAlign=middle;align=center;spacingLeft=2.0;spacingRight=0;whiteSpace=wrap;gliffyId=304;" parent="1" vertex="1">
          <mxGeometry x="520" y="610" width="140" height="35" as="geometry" />
        </mxCell>
        <mxCell id="52" style="shape=filledEdge;strokeWidth=2;strokeColor=#000000;fillColor=none;startArrow=none;startFill=0;startSize=6;endArrow=none;endFill=0;endSize=6;rounded=0;gliffyId=306;exitX=0.0;exitY=0.5;exitPerimeter=0;entryX=1.0;entryY=0.5;entryPerimeter=0;" parent="1" source="51" target="2" edge="1">
          <mxGeometry width="100" height="100" relative="1" as="geometry">
            <Array as="points">
              <mxPoint x="520" y="627.5" />
              <mxPoint x="440" y="509" />
            </Array>
          </mxGeometry>
        </mxCell>
        <mxCell id="53" style="shape=filledEdge;strokeWidth=2;strokeColor=#000000;fillColor=none;startArrow=none;startFill=0;startSize=6;endArrow=none;endFill=0;endSize=6;rounded=0;gliffyId=307;exitX=1.0;exitY=0.5;exitPerimeter=0;entryX=0.0;entryY=0.5;entryPerimeter=0;" parent="1" source="51" target="23" edge="1">
          <mxGeometry width="100" height="100" relative="1" as="geometry">
            <Array as="points">
              <mxPoint x="660" y="627.5" />
              <mxPoint x="740" y="509" />
            </Array>
          </mxGeometry>
        </mxCell>
      </root>
    </mxGraphModel>
  </diagram>
</mxfile>
